<svg width="44" height="44" viewBox="0 0 44 44" fill="none" xmlns="http://www.w3.org/2000/svg">
<path d="M7.33366 36.6667C6.32533 36.6667 5.46244 36.308 4.74499 35.5905C4.02755 34.8731 3.66821 34.0096 3.66699 33V11C3.66699 9.99168 4.02633 9.12879 4.74499 8.41134C5.46366 7.6939 6.32655 7.33457 7.33366 7.33334H36.667C37.6753 7.33334 38.5388 7.69268 39.2575 8.41134C39.9762 9.13001 40.3349 9.9929 40.3337 11V33C40.3337 34.0083 39.9749 34.8718 39.2575 35.5905C38.54 36.3092 37.6765 36.6679 36.667 36.6667H7.33366ZM22.0003 23.8333L36.667 14.6667V11L22.0003 20.1667L7.33366 11V14.6667L22.0003 23.8333Z" fill="white"/>
</svg>
