<svg width="24" height="24" viewBox="0 0 24 24" fill="none" xmlns="http://www.w3.org/2000/svg">
<path d="M19.87 10H19C18.8237 9.97923 18.656 9.91187 18.5144 9.80485C18.3727 9.69784 18.262 9.55503 18.1938 9.3911C18.1256 9.22717 18.1023 9.04803 18.1262 8.87209C18.1501 8.69615 18.2205 8.52976 18.33 8.39001L18.93 7.79001C19.0349 7.6859 19.1182 7.56205 19.175 7.42561C19.2318 7.28916 19.2611 7.14282 19.2611 6.99501C19.2611 6.84721 19.2318 6.70086 19.175 6.56442C19.1182 6.42797 19.0349 6.30412 18.93 6.20001L17.77 5.00001C17.6659 4.8951 17.542 4.81183 17.4056 4.755C17.2691 4.69818 17.1228 4.66892 16.975 4.66892C16.8272 4.66892 16.6808 4.69818 16.5444 4.755C16.408 4.81183 16.2841 4.8951 16.18 5.00001L15.58 5.60001C15.4451 5.70124 15.2868 5.7667 15.1198 5.79031C14.9528 5.81391 14.7825 5.79489 14.6248 5.73501C14.4671 5.67513 14.3272 5.57634 14.2179 5.44783C14.1087 5.31933 14.0337 5.16528 14 5.00001V4.12001C14.0001 3.9695 13.9699 3.82052 13.9111 3.68196C13.8523 3.5434 13.7662 3.41811 13.6579 3.31357C13.5497 3.20903 13.4214 3.12738 13.2809 3.07351C13.1404 3.01963 12.9904 2.99464 12.84 3.00001H11.16C11.0096 2.99464 10.8596 3.01963 10.7191 3.07351C10.5786 3.12738 10.4503 3.20903 10.3421 3.31357C10.2338 3.41811 10.1477 3.5434 10.0889 3.68196C10.0301 3.82052 9.9999 3.9695 10 4.12001V5.00001C9.97921 5.17635 9.91185 5.34397 9.80484 5.48566C9.69782 5.62734 9.55501 5.73798 9.39108 5.8062C9.22715 5.87442 9.04802 5.89776 8.87208 5.87382C8.69614 5.84989 8.52975 5.77954 8.39 5.67001L7.82 5.00001C7.71589 4.8951 7.59204 4.81183 7.45559 4.755C7.31915 4.69818 7.1728 4.66892 7.025 4.66892C6.87719 4.66892 6.73085 4.69818 6.5944 4.755C6.45796 4.81183 6.33411 4.8951 6.23 5.00001L5 6.23001C4.89508 6.33412 4.81181 6.45797 4.75499 6.59442C4.69816 6.73086 4.66891 6.87721 4.66891 7.02501C4.66891 7.17282 4.69816 7.31916 4.75499 7.45561C4.81181 7.59205 4.89508 7.7159 5 7.82001L5.6 8.42001C5.70123 8.55492 5.76669 8.71325 5.79029 8.88025C5.8139 9.04726 5.79487 9.21752 5.73499 9.3752C5.67512 9.53288 5.57633 9.67285 5.44782 9.7821C5.31931 9.89134 5.16526 9.9663 5 10H4.13C3.97865 9.99856 3.82858 10.0278 3.68885 10.086C3.54912 10.1441 3.42263 10.23 3.31702 10.3384C3.2114 10.4469 3.12886 10.5756 3.07438 10.7168C3.01989 10.858 2.99459 11.0088 3 11.16V12.84C2.99462 12.9904 3.01962 13.1404 3.07349 13.2809C3.12737 13.4214 3.20901 13.5497 3.31356 13.658C3.4181 13.7662 3.54339 13.8523 3.68195 13.9111C3.82051 13.9699 3.96949 14.0001 4.12 14H5C5.17634 14.0208 5.34396 14.0882 5.48564 14.1952C5.62733 14.3022 5.73797 14.445 5.80619 14.6089C5.8744 14.7729 5.89775 14.952 5.87381 15.1279C5.84988 15.3039 5.77953 15.4703 5.67 15.61L5.07 16.21C4.96508 16.3141 4.88181 16.438 4.82499 16.5744C4.76816 16.7109 4.73891 16.8572 4.73891 17.005C4.73891 17.1528 4.76816 17.2992 4.82499 17.4356C4.88181 17.5721 4.96508 17.6959 5.07 17.8L6.23 19C6.33411 19.1049 6.45796 19.1882 6.5944 19.245C6.73085 19.3019 6.87719 19.3311 7.025 19.3311C7.1728 19.3311 7.31915 19.3019 7.45559 19.245C7.59204 19.1882 7.71589 19.1049 7.82 19L8.42 18.4C8.55491 18.2988 8.71323 18.2333 8.88024 18.2097C9.04724 18.1861 9.21751 18.2051 9.37519 18.265C9.53287 18.3249 9.67284 18.4237 9.78208 18.5522C9.89132 18.6807 9.96629 18.8348 10 19V19.84C9.9944 19.9939 10.0206 20.1472 10.0769 20.2905C10.1332 20.4337 10.2184 20.5639 10.3273 20.6727C10.4362 20.7816 10.5663 20.8668 10.7095 20.9231C10.8528 20.9794 11.0062 21.0056 11.16 21H12.84C12.9904 21.0054 13.1404 20.9804 13.2809 20.9265C13.4214 20.8726 13.5497 20.791 13.6579 20.6865C13.7662 20.5819 13.8523 20.4566 13.9111 20.3181C13.9699 20.1795 14.0001 20.0305 14 19.88V19C14.0208 18.8237 14.0881 18.6561 14.1952 18.5144C14.3022 18.3727 14.445 18.262 14.6089 18.1938C14.7728 18.1256 14.952 18.1023 15.1279 18.1262C15.3039 18.1501 15.4702 18.2205 15.61 18.33L16.21 18.93C16.3141 19.0349 16.438 19.1182 16.5744 19.175C16.7109 19.2318 16.8572 19.2611 17.005 19.2611C17.1528 19.2611 17.2991 19.2318 17.4356 19.175C17.572 19.1182 17.6959 19.0349 17.8 18.93L19 17.77C19.1049 17.6659 19.1882 17.5421 19.245 17.4056C19.3018 17.2692 19.3311 17.1228 19.3311 16.975C19.3311 16.8272 19.3018 16.6809 19.245 16.5444C19.1882 16.408 19.1049 16.2841 19 16.18L18.4 15.58C18.2988 15.4451 18.2333 15.2868 18.2097 15.1198C18.1861 14.9528 18.2051 14.7825 18.265 14.6248C18.3249 14.4671 18.4237 14.3272 18.5522 14.2179C18.6807 14.1087 18.8347 14.0337 19 14H19.85C20.003 14.0042 20.1553 13.977 20.2973 13.9201C20.4394 13.8631 20.5683 13.7777 20.6761 13.669C20.7839 13.5603 20.8682 13.4306 20.9239 13.288C20.9796 13.1455 21.0055 12.993 21 12.84V11.16C21.0054 11.0088 20.9801 10.858 20.9256 10.7168C20.8711 10.5756 20.7886 10.4469 20.683 10.3384C20.5774 10.23 20.4509 10.1441 20.3111 10.086C20.1714 10.0278 20.0213 9.99856 19.87 10Z" stroke="#000D26" stroke-width="1.69" stroke-linecap="round" stroke-linejoin="round"/>
<path d="M12 14.25C13.2426 14.25 14.25 13.2426 14.25 12C14.25 10.7574 13.2426 9.75 12 9.75C10.7574 9.75 9.75 10.7574 9.75 12C9.75 13.2426 10.7574 14.25 12 14.25Z" stroke="#000D26" stroke-width="1.69" stroke-linecap="round" stroke-linejoin="round"/>
</svg>
