<svg width="44" height="44" viewBox="0 0 44 44" fill="none" xmlns="http://www.w3.org/2000/svg">
<path d="M22.0003 3.66666C19.5928 3.66666 17.2088 4.14086 14.9845 5.0622C12.7602 5.98353 10.7391 7.33396 9.0367 9.03637C5.59853 12.4745 3.66699 17.1377 3.66699 22C3.66699 30.1033 8.92866 36.9783 16.207 39.4167C17.1237 39.5633 17.417 38.995 17.417 38.5V35.4017C12.3387 36.5017 11.257 32.945 11.257 32.945C10.4137 30.8183 9.22199 30.25 9.22199 30.25C7.55366 29.1133 9.35033 29.15 9.35033 29.15C11.1837 29.2783 12.1553 31.0383 12.1553 31.0383C13.7503 33.825 16.4453 33 17.4903 32.56C17.6553 31.3683 18.132 30.5617 18.6453 30.1033C14.5753 29.645 10.3037 28.0683 10.3037 21.0833C10.3037 19.0483 11.0003 17.4167 12.192 16.115C12.0087 15.6567 11.367 13.75 12.3753 11.275C12.3753 11.275 13.9153 10.78 17.417 13.145C18.8653 12.7417 20.442 12.54 22.0003 12.54C23.5587 12.54 25.1353 12.7417 26.5837 13.145C30.0853 10.78 31.6253 11.275 31.6253 11.275C32.6337 13.75 31.992 15.6567 31.8087 16.115C33.0003 17.4167 33.697 19.0483 33.697 21.0833C33.697 28.0867 29.407 29.6267 25.3187 30.085C25.9787 30.6533 26.5837 31.7717 26.5837 33.4767V38.5C26.5837 38.995 26.877 39.5817 27.812 39.4167C35.0903 36.96 40.3337 30.1033 40.3337 22C40.3337 19.5924 39.8595 17.2084 38.9381 14.9841C38.0168 12.7598 36.6664 10.7388 34.9639 9.03637C33.2615 7.33396 31.2405 5.98353 29.0162 5.0622C26.7919 4.14086 24.4079 3.66666 22.0003 3.66666Z" fill="black"/>
</svg>
