<svg width="44" height="44" viewBox="0 0 44 44" fill="none" xmlns="http://www.w3.org/2000/svg">
<path d="M14.3003 3.66666H29.7003C35.567 3.66666 40.3337 8.43332 40.3337 14.3V29.7C40.3337 32.5201 39.2134 35.2248 37.2192 37.2189C35.2251 39.213 32.5205 40.3333 29.7003 40.3333H14.3003C8.43366 40.3333 3.66699 35.5667 3.66699 29.7V14.3C3.66699 11.4799 4.78729 8.77522 6.78142 6.78109C8.77556 4.78695 11.4802 3.66666 14.3003 3.66666ZM13.9337 7.33332C12.1832 7.33332 10.5045 8.02868 9.26675 9.26642C8.02901 10.5042 7.33366 12.1829 7.33366 13.9333V30.0667C7.33366 33.715 10.2853 36.6667 13.9337 36.6667H30.067C31.8174 36.6667 33.4962 35.9713 34.7339 34.7336C35.9716 33.4958 36.667 31.8171 36.667 30.0667V13.9333C36.667 10.285 33.7153 7.33332 30.067 7.33332H13.9337ZM31.6253 10.0833C32.2331 10.0833 32.816 10.3248 33.2458 10.7545C33.6756 11.1843 33.917 11.7672 33.917 12.375C33.917 12.9828 33.6756 13.5657 33.2458 13.9954C32.816 14.4252 32.2331 14.6667 31.6253 14.6667C31.0175 14.6667 30.4346 14.4252 30.0049 13.9954C29.5751 13.5657 29.3337 12.9828 29.3337 12.375C29.3337 11.7672 29.5751 11.1843 30.0049 10.7545C30.4346 10.3248 31.0175 10.0833 31.6253 10.0833ZM22.0003 12.8333C24.4315 12.8333 26.7631 13.7991 28.4821 15.5182C30.2012 17.2373 31.167 19.5688 31.167 22C31.167 24.4311 30.2012 26.7627 28.4821 28.4818C26.7631 30.2009 24.4315 31.1667 22.0003 31.1667C19.5692 31.1667 17.2376 30.2009 15.5185 28.4818C13.7994 26.7627 12.8337 24.4311 12.8337 22C12.8337 19.5688 13.7994 17.2373 15.5185 15.5182C17.2376 13.7991 19.5692 12.8333 22.0003 12.8333ZM22.0003 16.5C20.5416 16.5 19.1427 17.0795 18.1112 18.1109C17.0798 19.1424 16.5003 20.5413 16.5003 22C16.5003 23.4587 17.0798 24.8576 18.1112 25.8891C19.1427 26.9205 20.5416 27.5 22.0003 27.5C23.459 27.5 24.858 26.9205 25.8894 25.8891C26.9209 24.8576 27.5003 23.4587 27.5003 22C27.5003 20.5413 26.9209 19.1424 25.8894 18.1109C24.858 17.0795 23.459 16.5 22.0003 16.5Z" fill="black"/>
</svg>
